<svg xmlns="http://www.w3.org/2000/svg" width="25.514" height="20.929" viewBox="0 0 25.514 20.929"><defs><style>.a{fill:#03fcf5;}</style></defs><g transform="translate(0 -46)"><path class="a" d="M246.5,386a.5.5,0,1,0,.5.5A.5.5,0,0,0,246.5,386Z" transform="translate(-233.741 -323.057)"/><path class="a" d="M23.375,46.766A12.382,12.382,0,0,0,18.886,46a12.382,12.382,0,0,0-4.489.766,4.423,4.423,0,0,0-1.64,1.049,4.423,4.423,0,0,0-1.64-1.049A12.381,12.381,0,0,0,6.628,46a12.382,12.382,0,0,0-4.489.766C.759,47.321,0,48.111,0,48.99v11.96c0,.879.759,1.669,2.138,2.224a12.12,12.12,0,0,0,4.14.762v0c0,1.7,2.785,2.99,6.478,2.99s6.478-1.285,6.478-2.99v0a12.12,12.12,0,0,0,4.14-.762c1.379-.555,2.138-1.345,2.138-2.224V48.99C25.514,48.111,24.754,47.321,23.375,46.766ZM24.517,57.96c0,.425-.58.923-1.514,1.3a11.265,11.265,0,0,1-3.768.689V57.96s0,0,0,0a12.118,12.118,0,0,0,4.141-.762,5.426,5.426,0,0,0,1.142-.61V57.96ZM12.259,51.98c0,.425-.58.923-1.514,1.3a11.539,11.539,0,0,1-4.117.694,11.539,11.539,0,0,1-4.117-.694C1.577,52.9,1,52.405,1,51.98V50.6a5.426,5.426,0,0,0,1.142.61,12.382,12.382,0,0,0,4.489.766,12.382,12.382,0,0,0,4.489-.766,5.426,5.426,0,0,0,1.142-.61ZM2.138,54.2a12.382,12.382,0,0,0,4.489.766,12.382,12.382,0,0,0,4.489-.766,5.426,5.426,0,0,0,1.142-.61v1.385a12.118,12.118,0,0,0-3.525.607,4.288,4.288,0,0,0-2.117,1.377,11.531,11.531,0,0,1-4.105-.694C1.577,55.893,1,55.4,1,54.97V53.594A5.426,5.426,0,0,0,2.138,54.2ZM1,56.584a5.426,5.426,0,0,0,1.142.61,12.121,12.121,0,0,0,4.141.762s0,0,0,0v1.988a11.265,11.265,0,0,1-3.768-.689C1.577,58.883,1,58.385,1,57.96Zm6.331,1.131c.369-.859,2.5-1.748,5.429-1.748s5.059.889,5.428,1.747a.617.617,0,0,1,.053.246c0,.438-.54.925-1.445,1.3a10.845,10.845,0,0,1-4.037.692,10.845,10.845,0,0,1-4.037-.692c-.9-.377-1.445-.864-1.445-1.3A.615.615,0,0,1,7.328,57.715ZM24.517,54.97c0,.425-.58.923-1.514,1.3a11.53,11.53,0,0,1-4.105.694,4.288,4.288,0,0,0-2.117-1.377,12.117,12.117,0,0,0-3.525-.607V53.594a5.426,5.426,0,0,0,1.142.61,12.382,12.382,0,0,0,4.489.766,12.382,12.382,0,0,0,4.489-.766,5.426,5.426,0,0,0,1.142-.61Zm0-2.99c0,.425-.58.923-1.514,1.3a11.539,11.539,0,0,1-4.117.694,11.539,11.539,0,0,1-4.117-.694c-.934-.376-1.514-.874-1.514-1.3V50.6a5.426,5.426,0,0,0,1.142.61,12.382,12.382,0,0,0,4.489.766,12.382,12.382,0,0,0,4.489-.766,5.426,5.426,0,0,0,1.142-.61ZM14.769,47.69A11.539,11.539,0,0,1,18.886,47,11.539,11.539,0,0,1,23,47.69c.934.376,1.514.874,1.514,1.3s-.58.923-1.514,1.3a11.539,11.539,0,0,1-4.117.694,11.539,11.539,0,0,1-4.117-.694c-.934-.376-1.514-.874-1.514-1.3S13.835,48.067,14.769,47.69Zm-12.259,0A11.539,11.539,0,0,1,6.628,47a11.539,11.539,0,0,1,4.117.694c.934.376,1.514.874,1.514,1.3s-.58.923-1.514,1.3a11.539,11.539,0,0,1-4.117.694,11.539,11.539,0,0,1-4.117-.694C1.577,49.913,1,49.415,1,48.99S1.577,48.067,2.511,47.69Zm0,14.559C1.577,61.873,1,61.375,1,60.949V59.573a5.426,5.426,0,0,0,1.142.61,12.12,12.12,0,0,0,4.14.762v1.993A11.265,11.265,0,0,1,2.511,62.249Zm14.283,2.992a10.845,10.845,0,0,1-4.037.692,10.845,10.845,0,0,1-4.037-.692c-.9-.377-1.445-.864-1.445-1.3V62.592a4.39,4.39,0,0,0,.376.243,8.727,8.727,0,0,0,3.045.958.5.5,0,0,0,.073.005.5.5,0,0,0,.072-.991c-2.316-.34-3.566-1.211-3.566-1.858V59.6a9.727,9.727,0,0,0,5.481,1.351A9.727,9.727,0,0,0,18.238,59.6v1.351c0,.647-1.25,1.518-3.566,1.858a.5.5,0,0,0,.072.991.5.5,0,0,0,.073-.005,8.727,8.727,0,0,0,3.045-.958,4.4,4.4,0,0,0,.376-.243v1.347C18.238,64.377,17.7,64.864,16.793,65.241ZM23,62.249a11.265,11.265,0,0,1-3.768.689V60.945a12.12,12.12,0,0,0,4.14-.762,5.426,5.426,0,0,0,1.142-.61v1.376C24.517,61.375,23.937,61.873,23,62.249Z"/></g></svg>