<svg xmlns="http://www.w3.org/2000/svg" width="71.932" height="70.332" viewBox="0 0 71.932 70.332"><defs><style>.a{fill:#03fcf5;}.b{fill:#fcd462;}.c{fill:#469daf;}.d{fill:#fff;}</style></defs><g transform="translate(0 -5.21)"><g transform="translate(1.901 5.21)"><path class="a" d="M82.177,36.32a35.161,35.161,0,0,0-69.8-.486.916.916,0,0,0,1.818.225,33.353,33.353,0,1,1,.715,12.382.913.913,0,0,0-.884-.7h0a.921.921,0,0,0-.9,1.133A35.161,35.161,0,0,0,82.177,36.32Z" transform="translate(-12.374 -5.21)"/><path class="a" d="M119.152,84.073c-1.387-10.847-11.736-21.326-22.565-22.846a26.531,26.531,0,0,0-16.244,2.828.836.836,0,0,0-.275,1.191l.046.077a.824.824,0,0,0,1.108.334,24.82,24.82,0,1,1-8.433,7.285.844.844,0,0,0-.2-1.188l-.038-.029a.849.849,0,0,0-1.213.12,26.477,26.477,0,0,0-5.06,18.079c1.048,12.064,12.212,23.166,24.281,24.15A26.634,26.634,0,0,0,119.152,84.073Z" transform="translate(-57.907 -52.396)"/><path class="a" d="M155.294,129.563A16.176,16.176,0,0,1,142.327,150.8,16.217,16.217,0,1,1,148,120.711a.926.926,0,0,0,1.236-.285l.01-.015a.885.885,0,0,0-.287-1.256,17.911,17.911,0,0,0-10.914-2.342A18.043,18.043,0,1,0,157.584,138.6a17.913,17.913,0,0,0-.562-9.641.9.9,0,0,0-1.244-.534l-.017.008A.92.92,0,0,0,155.294,129.563Z" transform="translate(-105.09 -99.587)"/><path class="a" d="M192.121,180.927a.922.922,0,1,0-.964,1.572,7.638,7.638,0,0,1,3.39,8.428,7.451,7.451,0,0,1-5.865,5.551,7.662,7.662,0,0,1-9.192-7.5,7.583,7.583,0,0,1,2.592-5.7.923.923,0,0,0,.323-.691h0a.92.92,0,0,0-1.513-.707,9.466,9.466,0,1,0,11.23-.953Z" transform="translate(-152.274 -153.815)"/></g><g transform="translate(0 29.96)"><circle class="b" cx="2.74" cy="2.74" r="2.74" transform="translate(0 9.814)"/><circle class="b" cx="2.398" cy="2.398" r="2.398" transform="translate(33.712)"/></g><circle class="c" cx="2.74" cy="2.74" r="2.74" transform="translate(17.43 18.261)"/><circle class="d" cx="2.74" cy="2.74" r="2.74" transform="translate(47.066 27.393)"/></g></svg>