<svg xmlns="http://www.w3.org/2000/svg" width="23.789" height="23.788" viewBox="0 0 23.789 23.788"><defs><style>.a{fill:#03fcf5;}</style></defs><g transform="translate(0 -0.001)"><g transform="translate(0 3.965)"><path class="a" d="M21.311,23.824H2.478A2.481,2.481,0,0,1,0,21.346V6.478A2.481,2.481,0,0,1,2.478,4H7.93a.5.5,0,0,1,0,.991H2.478A1.489,1.489,0,0,0,.991,6.478V21.346a1.489,1.489,0,0,0,1.487,1.487H21.311A1.489,1.489,0,0,0,22.8,21.346V6.478a1.489,1.489,0,0,0-1.487-1.487H15.859a.5.5,0,0,1,0-.991h5.452a2.481,2.481,0,0,1,2.478,2.478V21.346A2.481,2.481,0,0,1,21.311,23.824Z" transform="translate(0 -4)"/></g><g transform="translate(0 12.886)"><path class="a" d="M23.293,13.991H.5A.5.5,0,0,1,.5,13h22.8a.5.5,0,0,1,0,.991Z" transform="translate(0 -13)"/></g><g transform="translate(5.452 8.921)"><path class="a" d="M17.89,9.991H6A.5.5,0,0,1,6,9H17.89a.5.5,0,0,1,0,.991Z" transform="translate(-5.5 -9)"/></g><g transform="translate(5.789 0.001)"><path class="a" d="M14.236,9.912a.5.5,0,0,1-.349-.846l2.969-2.96L11.946,1.2,7.037,6.106l2.969,2.96a.5.5,0,1,1-.7.7L5.986,6.457a.5.5,0,0,1,0-.7l5.61-5.61a.5.5,0,0,1,.7,0l5.61,5.61a.5.5,0,0,1,0,.7L14.584,9.768A.5.5,0,0,1,14.236,9.912Z" transform="translate(-5.84 -0.001)"/></g></g></svg>