<svg xmlns="http://www.w3.org/2000/svg" width="12.627" height="15" viewBox="0 0 12.627 15"><defs><style>.a{fill:#a2a2a2;}</style></defs><path class="a" d="M7.939,15h-5.6A2.346,2.346,0,0,1,0,12.656V4.717A2.346,2.346,0,0,1,2.344,2.373h5.6a2.346,2.346,0,0,1,2.344,2.344v7.939A2.346,2.346,0,0,1,7.939,15ZM2.344,3.545A1.173,1.173,0,0,0,1.172,4.717v7.939a1.173,1.173,0,0,0,1.172,1.172h5.6a1.173,1.173,0,0,0,1.172-1.172V4.717A1.173,1.173,0,0,0,7.939,3.545Zm10.283,7.646V2.344A2.346,2.346,0,0,0,10.283,0h-6.5a.586.586,0,1,0,0,1.172h6.5a1.173,1.173,0,0,1,1.172,1.172v8.848a.586.586,0,0,0,1.172,0Zm0,0"/></svg>