<svg xmlns="http://www.w3.org/2000/svg" width="103.713" height="64.308" viewBox="0 0 103.713 64.308"><defs><style>.a{fill:#fff;}.b{fill:#4a555f;}.c{fill:#03fcf5;}.d{fill:#e0e0e0;}.e{fill:#469daf;}.f{fill:#71cde1;}</style></defs><g transform="translate(0 -78.4)"><g transform="translate(11.912 87.472)"><path class="a" d="M193.324,132.4V171H155a19.3,19.3,0,1,0,0-38.6Z" transform="translate(-127.96 -127.902)"/><path class="a" d="M119.775,123.27v-1.508h-4v-5h-3.016v2.262h-5.755V114.5H88.262v4.523H62.956l-6.283,5.7H47.4v3.719h4.8v2.362H47.4V134.3h4.8v2.362H47.4v3.493h4.8v2.362H47.4v3.493h4.8v2.362H47.4v3.719h9.524l6.031,5.478h49.808v2.387h3.016v-4.549h4V144.681h-4v-4.373h4V138.8h-4v-2.036h4v-11.51h-4V123.22h4Z" transform="translate(-47.4 -114.5)"/></g><g transform="translate(11.459 91.468)"><path class="b" d="M60.929,181.647H45.6v-4.624h4.8v-1.458H45.6v-4.423h4.8v-1.458H45.6v-4.423h4.8V163.8H45.6v-4.423h4.8v-1.458H45.6V153.3H60.678l-.779.779a18.842,18.842,0,0,0,.251,26.764Zm-14.425-.93H58.718a19.776,19.776,0,0,1-.2-26.512H46.5v2.789h4.8v3.292H46.5v2.588h4.8v3.292H46.5v2.588h4.8v3.292H46.5v2.588h4.8v3.292H46.5Z" transform="translate(-45.6 -147.545)"/><path class="b" d="M193.776,169.955H155v-.93a18.849,18.849,0,1,0,0-37.7v-.93h38.776Zm-32.619-.9h31.714V131.38H161.157a19.755,19.755,0,0,1,0,37.67Z" transform="translate(-127.507 -130.4)"/></g><path class="c" d="M200.6,174.383a20.921,20.921,0,0,0,0-35.283h25.206v35.308Z" transform="translate(-150.189 -45.446)"/><g transform="translate(52.321 86.995)"><path class="b" d="M227.852,118.028H208.2V112.6h19.652Zm-18.747-.9h17.817V113.53H209.1Z" transform="translate(-208.2 -112.6)"/><path class="b" d="M309.545,165.779H305.6V121.6h3.945Zm-3.016-.93h2.111V122.53H306.53Z" transform="translate(-281.123 -119.338)"/><path class="b" d="M322.6,168.114h-4.9V155.7h4.9Zm-4-.93h3.066V156.6H318.6Z" transform="translate(-290.182 -144.869)"/><path class="b" d="M322.6,143.938h-4.9V141.5h4.9Zm-4-.93h3.066v-.6H318.6Z" transform="translate(-290.182 -134.237)"/><path class="b" d="M322.6,211.938h-4.9V209.5h4.9Zm-4-.93h3.066v-.6H318.6Z" transform="translate(-290.182 -185.149)"/><path class="b" d="M322.6,244.56h-4.9V232.9h4.9Zm-4-.93h3.066v-9.8H318.6Z" transform="translate(-290.182 -202.668)"/></g><g transform="translate(81.774 100.012)"><rect class="d" width="1.005" height="8.142" transform="translate(0 0)"/><path class="d" d="M326.405,248.964H325.4V241.4h1.005Z" transform="translate(-325.4 -222.05)"/></g><rect class="e" width="15.279" height="1.131" transform="translate(54.533 89.206)"/><g transform="translate(20.883 91.518)"><path class="b" d="M83.728,137.109l-.628-.679,6.408-5.83h11.66v.9H89.86Z" transform="translate(-83.1 -130.6)"/><path class="b" d="M101.917,269.157H90.257L84.1,263.579l.6-.679,5.906,5.353h11.309Z" transform="translate(-83.849 -229.653)"/></g><g transform="translate(18.421 99.836)"><path class="f" d="M73.3,171.164V163.7h2.764S73.35,168.3,73.3,171.164Z" transform="translate(-73.3 -163.7)"/><path class="f" d="M73.3,226.6v7.464h2.764S73.35,229.465,73.3,226.6Z" transform="translate(-73.3 -210.793)"/></g><g transform="translate(8.268 82.044)"><path class="b" d="M117.591,182.783a12.791,12.791,0,1,1,12.791-12.791A12.795,12.795,0,0,1,117.591,182.783Zm0-24.653a11.862,11.862,0,1,0,11.862,11.862A11.883,11.883,0,0,0,117.591,158.13Z" transform="translate(-86.731 -141.041)"/><rect class="b" width="0.93" height="1.608" transform="translate(91.977 23.07)"/><rect class="b" width="0.93" height="1.608" transform="translate(91.977 27.518)"/><rect class="b" width="1.608" height="0.93" transform="translate(93.837 25.633)"/><rect class="b" width="1.608" height="0.93" transform="translate(89.389 25.633)"/><rect class="b" width="0.93" height="1.608" transform="translate(2.563 0)"/><rect class="b" width="0.93" height="1.608" transform="translate(2.563 4.448)"/><rect class="b" width="1.608" height="0.93" transform="translate(4.423 2.563)"/><rect class="b" width="1.608" height="0.93" transform="translate(0 2.563)"/><rect class="b" width="0.93" height="1.608" transform="translate(9.399 53.075)"/><rect class="b" width="0.93" height="1.608" transform="translate(9.399 57.523)"/><rect class="b" width="1.608" height="0.93" transform="translate(11.284 55.639)"/><rect class="b" width="1.608" height="0.93" transform="translate(6.835 55.639)"/></g><circle class="e" cx="2.337" cy="2.337" r="2.337" transform="translate(89.338 128.233)"/><circle class="d" cx="1.357" cy="1.357" r="1.357" transform="translate(0 102.902)"/><circle class="e" cx="1.583" cy="1.583" r="1.583" transform="translate(24.075 78.4)"/><circle class="d" cx="1.231" cy="1.231" r="1.231" transform="translate(52.321 140.246)"/><circle class="e" cx="1.03" cy="1.03" r="1.03" transform="translate(88.308 91.166)"/><g transform="translate(29.151 84.909)"><path class="b" d="M116.377,107.24l-.377-.829c.251-.126.528-.226.779-.327l.352.854C116.88,107.014,116.628,107.14,116.377,107.24Zm18.37-.327c-.276-.1-.553-.226-.854-.327l.3-.854c.3.1.578.226.88.327Zm-16.762-.3-.3-.854c.3-.1.6-.2.88-.3l.276.88A8.5,8.5,0,0,0,117.985,106.612Zm15.078-.327c-.276-.1-.578-.176-.854-.251l.251-.88c.3.075.6.176.9.251Zm-13.369-.226-.251-.88.9-.226.2.9C120.272,105.908,120,105.984,119.694,106.059Zm11.61-.226c-.3-.075-.578-.126-.88-.176l.176-.9c.3.05.6.126.93.2Zm-9.851-.176-.176-.9c.3-.05.6-.1.93-.151l.151.9Zm8.092-.176c-.3-.05-.6-.075-.9-.126l.1-.9c.3.025.628.075.93.126Zm-6.308-.1-.1-.9c.3-.025.628-.075.93-.1l.075.9C123.841,105.33,123.539,105.355,123.238,105.381Zm4.5-.1c-.3-.025-.6-.05-.9-.05l.025-.93c.3,0,.628.025.93.05Zm-2.689-.025-.05-.93c.3-.025.628-.025.93-.025v.93C125.65,105.23,125.348,105.23,125.047,105.255Z" transform="translate(-116 -104.3)"/><path class="b" d="M125.247,307.34v-.93c.3,0,.6,0,.9-.025l.05.93C125.876,307.34,125.574,307.34,125.247,307.34Zm-.93,0c-.3,0-.628-.025-.93-.05l.075-.93c.3.025.6.05.9.05Zm2.815-.075-.075-.9.9-.075.1.9C127.735,307.215,127.434,307.24,127.132,307.265Zm-4.7-.075c-.3-.025-.628-.075-.93-.126l.126-.9c.3.05.6.075.9.126Zm6.559-.126-.151-.9c.3-.05.6-.1.88-.151l.176.9Zm-8.394-.151c-.3-.05-.6-.126-.93-.2l.2-.9c.3.075.578.126.88.176Zm10.228-.2-.2-.9c.3-.075.578-.151.88-.226l.251.88C131.43,306.561,131.128,306.637,130.826,306.712Zm-12.063-.2c-.3-.075-.6-.176-.9-.251l.276-.88c.276.1.578.176.854.251Zm13.872-.3-.276-.88c.276-.1.578-.176.854-.276l.3.854A9.027,9.027,0,0,1,132.636,306.209Zm-15.656-.276c-.3-.1-.578-.226-.88-.327l.352-.854c.276.1.553.226.854.327Zm17.415-.352-.352-.854c.251-.1.5-.2.754-.327l.377.854A7.237,7.237,0,0,1,134.395,305.581Z" transform="translate(-116.075 -254.114)"/></g><g transform="translate(19.803 92.046)"><path class="a" d="M265.636,180.116H258.1l-1.659-2.086H253.9v-.93h2.991l1.659,2.086h7.087Z" transform="translate(-209.897 -165.942)"/><path class="a" d="M245.058,175.916a1.558,1.558,0,1,1,1.558-1.558A1.566,1.566,0,0,1,245.058,175.916Zm0-2.211a.653.653,0,1,0,.653.653A.683.683,0,0,0,245.058,173.7Z" transform="translate(-202.11 -162.723)"/><path class="a" d="M253.558,206.616a1.558,1.558,0,1,1,1.558-1.558A1.534,1.534,0,0,1,253.558,206.616Zm0-2.211a.649.649,0,0,0-.653.653.634.634,0,0,0,.653.653.649.649,0,0,0,.653-.653A.634.634,0,0,0,253.558,204.4Z" transform="translate(-208.474 -185.708)"/><path class="a" d="M259.558,158.016a1.558,1.558,0,1,1,1.558-1.558A1.566,1.566,0,0,1,259.558,158.016Zm0-2.211a.653.653,0,1,0,.653.653A.649.649,0,0,0,259.558,155.8Z" transform="translate(-212.966 -149.321)"/><path class="a" d="M270.862,154.29H268.6v-.93h1.885l2.036-1.96h4.121v.9H272.9Z" transform="translate(-220.903 -146.701)"/><path class="a" d="M256.891,231.391H253.9v-.9h2.538L258.1,228.4h7.539v.9h-7.087Z" transform="translate(-209.897 -204.35)"/><path class="a" d="M245.058,235.416a1.558,1.558,0,1,1,1.558-1.558A1.566,1.566,0,0,1,245.058,235.416Zm0-2.211a.649.649,0,0,0-.653.653.653.653,0,0,0,1.307,0A.649.649,0,0,0,245.058,233.2Z" transform="translate(-202.11 -207.27)"/><path class="a" d="M259.558,253.316a1.558,1.558,0,1,1,1.558-1.558A1.566,1.566,0,0,1,259.558,253.316Zm0-2.186a.653.653,0,1,0,.653.653A.649.649,0,0,0,259.558,251.13Z" transform="translate(-212.966 -220.672)"/><path class="a" d="M276.642,257.49H272.52l-2.036-1.985H268.6v-.9h2.262l2.036,1.96h3.744Z" transform="translate(-220.903 -223.966)"/><rect class="a" width="9.55" height="0.93" transform="translate(46.19 18.873)"/><path class="a" d="M117.325,150.04a19.348,19.348,0,0,0-16.963-17.214A21.915,21.915,0,0,0,98.1,132.7a18.733,18.733,0,0,0-2.387.151A19.292,19.292,0,0,0,78.9,150.04a17.069,17.069,0,0,0-.1,1.96,23.32,23.32,0,0,0,.176,2.664,19.229,19.229,0,0,0,4.046,9.4,20.245,20.245,0,0,0,3.317,3.242,19.217,19.217,0,0,0,9.374,3.845,18.736,18.736,0,0,0,2.387.151c.754,0,1.508-.05,2.262-.126a19.3,19.3,0,0,0,16.862-16.485,18.725,18.725,0,0,0,.176-2.664A16.828,16.828,0,0,0,117.325,150.04Zm-4.825,0h-5.051a9,9,0,0,0-1.055-2.764l3.594-3.594A14.011,14.011,0,0,1,112.5,150.04Zm-5.7-9.675-3.569,3.543a9.549,9.549,0,0,0-2.84-1.231v-5.026A14.6,14.6,0,0,1,106.8,140.365Zm-11.057-2.689v5a9.693,9.693,0,0,0-2.865,1.231l-3.493-3.493A14.613,14.613,0,0,1,95.738,137.676Zm-9.55,6.082,3.518,3.518a9.479,9.479,0,0,0-1.03,2.739H83.751A14.778,14.778,0,0,1,86.188,143.757Zm-2.312,10.907h4.976a8.919,8.919,0,0,0,1.131,2.488l-3.493,3.493A14.11,14.11,0,0,1,83.876,154.664Zm5.931,9.2,3.543-3.543a9.121,9.121,0,0,0,2.413.955v5A13.838,13.838,0,0,1,89.807,163.862Zm10.58,2.463V161.3a9.12,9.12,0,0,0,2.413-.955l3.594,3.594A14.95,14.95,0,0,1,100.387,166.324Zm9.323-5.6-3.568-3.569a8.751,8.751,0,0,0,1.131-2.513H112.4A14.353,14.353,0,0,1,109.71,160.72Z" transform="translate(-78.8 -132.7)"/></g><ellipse class="c" cx="7.162" cy="6.961" rx="7.162" ry="6.961" transform="translate(31.966 104.033)"/><path class="b" d="M96.852,170.3a19.241,19.241,0,0,1-2.438-.151,19.752,19.752,0,0,1-9.575-3.92,20.171,20.171,0,0,1-3.393-3.317,19.586,19.586,0,0,1-4.146-9.625,19.8,19.8,0,0,1-.2-2.739,17.656,17.656,0,0,1,.1-2.01,19.659,19.659,0,0,1,3.9-9.926,20.02,20.02,0,0,1,3.292-3.393,19.717,19.717,0,0,1,24.778-.1,19.754,19.754,0,0,1,7.288,13.394,17.654,17.654,0,0,1,.1,2.01,20.09,20.09,0,0,1-.2,2.739,19.852,19.852,0,0,1-4.222,9.7,19.131,19.131,0,0,1-3.393,3.292,19.641,19.641,0,0,1-9.65,3.9A12.859,12.859,0,0,1,96.852,170.3Zm0-38.55a17.291,17.291,0,0,0-2.312.151,18.785,18.785,0,0,0-9.55,4.071,19.15,19.15,0,0,0-3.141,3.242,18.9,18.9,0,0,0-3.719,9.449,15.93,15.93,0,0,0-.1,1.91,18.266,18.266,0,0,0,.176,2.614,18.784,18.784,0,0,0,3.945,9.173,19.328,19.328,0,0,0,3.242,3.166,18.841,18.841,0,0,0,9.147,3.744,19.428,19.428,0,0,0,4.523.025,18.507,18.507,0,0,0,9.2-3.719,18.261,18.261,0,0,0,3.242-3.141,18.82,18.82,0,0,0,4.021-9.248,18.024,18.024,0,0,0,.176-2.614,15.658,15.658,0,0,0-.1-1.91,18.711,18.711,0,0,0-3.795-9.55,17.433,17.433,0,0,0-3.166-3.217,19.013,19.013,0,0,0-9.575-4.021A16.544,16.544,0,0,0,96.852,131.745Zm1.784,33.675v-5.931l.352-.075a9.432,9.432,0,0,0,2.287-.9l.3-.176,4.222,4.222-.452.327a14.9,14.9,0,0,1-6.182,2.463Zm.93-5.2v4.121a13.738,13.738,0,0,0,4.8-1.91l-2.94-2.94A10.565,10.565,0,0,1,99.567,160.218Zm-4.624,5.2-.528-.1a14.916,14.916,0,0,1-6.132-2.513l-.452-.327L92,158.308l.3.176a8.513,8.513,0,0,0,2.287.9l.352.075Zm-5.679-3.041a13.267,13.267,0,0,0,4.75,1.935v-4.1a8.492,8.492,0,0,1-1.86-.754Zm19.225-2.387-4.222-4.2.2-.3a8.925,8.925,0,0,0,1.081-2.387l.1-.327h6.006l-.1.553a15.107,15.107,0,0,1-2.764,6.257Zm-3.041-4.322,2.94,2.915a14.059,14.059,0,0,0,2.161-4.9h-4.222A8.708,8.708,0,0,1,105.447,155.669Zm-20.28,4.247-.327-.427a15.043,15.043,0,0,1-2.714-6.182l-.1-.553h5.88l.1.327a8.37,8.37,0,0,0,1.081,2.362l.2.3Zm-2.01-6.232a14.275,14.275,0,0,0,2.111,4.825l2.865-2.865a9.76,9.76,0,0,1-.88-1.96Zm28.6-4.624H105.8l-.075-.377a9.347,9.347,0,0,0-.98-2.614l-.176-.3,4.247-4.222.327.452a14.966,14.966,0,0,1,2.563,6.559Zm-5.2-.93H110.7a14.346,14.346,0,0,0-2.01-5.177l-2.965,2.965A11.737,11.737,0,0,1,106.553,148.13Zm-18.772.93H81.95l.075-.528a14.682,14.682,0,0,1,2.513-6.458l.3-.452,4.172,4.147-.176.3a8.629,8.629,0,0,0-.98,2.614Zm-4.75-.93h4.021a11.122,11.122,0,0,1,.829-2.211l-2.89-2.89A14.244,14.244,0,0,0,83.031,148.13Zm8.519-5.051L87.4,138.932l.427-.327a14.837,14.837,0,0,1,6.559-2.815l.528-.075v5.906l-.352.075a8.416,8.416,0,0,0-2.714,1.181Zm-2.739-4.021,2.865,2.865a9.656,9.656,0,0,1,2.337-1.005v-4.1A13.7,13.7,0,0,0,88.811,139.058ZM102,143.079l-.3-.2a8.941,8.941,0,0,0-2.714-1.156l-.352-.075v-5.956l.528.075a14.864,14.864,0,0,1,6.609,2.789l.427.327Zm-2.438-2.186a9.92,9.92,0,0,1,2.312,1.005l2.915-2.915a14.35,14.35,0,0,0-5.227-2.211Z" transform="translate(-57.725 -39.222)"/></g></svg>