<svg xmlns="http://www.w3.org/2000/svg" width="68.797" height="59.5" viewBox="0 0 68.797 59.5"><defs><style>.a{fill:#fff;}.b{fill:#4a555f;}.c{fill:#71cde1;}.d{fill:#03fcf5;}.e{fill:#469daf;}.f{fill:#e0e0e0;}</style></defs><g transform="translate(0 -20.75)"><path class="a" d="M86.15,30.936H81.378L70.872,23.05,60.365,30.936H55.593L49.5,27.127v42.7L70.872,81.564,92.243,69.826v-42.7Z" transform="translate(-38.411 -1.785)"/><g transform="translate(3.36 31.033)"><rect class="b" width="0.829" height="1.546" transform="translate(2.509 43.012)"/><rect class="b" width="0.829" height="1.546" transform="translate(2.509 47.291)"/><rect class="b" width="1.546" height="0.829" transform="translate(4.279 45.521)"/><rect class="b" width="1.546" height="0.829" transform="translate(0 45.521)"/><rect class="b" width="0.829" height="1.546" transform="translate(62.121)"/><rect class="b" width="0.829" height="1.546" transform="translate(62.121 4.256)"/><rect class="b" width="1.546" height="0.829" transform="translate(63.891 2.487)"/><rect class="b" width="1.546" height="0.829" transform="translate(59.634 2.487)"/></g><circle class="c" cx="1.568" cy="1.568" r="1.568" transform="translate(57.103 58.296)"/><circle class="d" cx="1.994" cy="1.994" r="1.994" transform="translate(0 33.295)"/><circle class="c" cx="0.806" cy="0.806" r="0.806" transform="translate(6.071 51.306)"/><path class="b" d="M69.475,74.515,47.7,62.552V24.6l6.631,4.144h4.5l10.641-8,10.641,8h4.525L91.25,24.6V62.552ZM48.529,62.082,69.5,73.6,90.466,62.082v-36l-5.6,3.495H79.847l-10.372-7.8L59.1,29.576H54.085l-5.556-3.495Zm20.946,7.751L51.8,60.133V32.018l1.344.829H60.2l9.274-6.967,9.274,6.967h7.057L87.15,32V60.133ZM52.628,59.64l16.846,9.252L86.321,59.64V33.474l-.291.179H78.458l-9.006-6.765-9.006,6.765H52.875l-.291-.179Z" transform="translate(-37.014)"/><path class="d" d="M161.047,38.51h-5.623L145.5,31.05v1.725l9.476,7.1h6.452L164,38.263V68.686L145.5,78.856v1.568l19.871-10.932V35.8Z" transform="translate(-112.905 -7.993)"/><path class="b" d="M69.475,221.866,47.7,209.9V203.25l21.775,11.963L91.25,203.25V209.9ZM48.529,209.411,69.5,220.925l20.968-11.515v-4.794L69.5,216.131,48.529,204.617v4.794Z" transform="translate(-37.014 -141.616)"/><g transform="translate(12.456 42.502)"><path class="d" d="M55.6,219.249v-2.6l20.005,10.977L95.61,216.65v2.6L75.605,230.226Z" transform="translate(-55.6 -194.517)"/><path class="d" d="M114.823,119.889l4.951,5.4-2.666-.134,11.156-7.3-8.625,10.171-1.232,1.434-1.456-1.591L112,122.487Z" transform="translate(-99.365 -117.85)"/><path class="e" d="M128.264,117.85l-2.061,2.419-7.5,5.13-.9-.941-.269-.336-2.711-2.935-2.151,2.039-.672-.739,2.823-2.6L118.7,124.1Z" transform="translate(-99.365 -117.85)"/></g><path class="f" d="M102.783,67.411,94.539,61.25l-8.222,6.161H80V89.387l3.54,1.9V71.04h2.778l8.222-6.183,8.244,6.183h6.295V67.411Z" transform="translate(-62.078 -31.427)"/></g></svg>