<svg xmlns="http://www.w3.org/2000/svg" width="23" height="28.343" viewBox="0 0 23 28.343"><defs><style>.a{fill:#fff;}</style></defs><g transform="translate(-47.875)"><g transform="translate(47.875)"><path class="a" d="M156.38,181.824a.531.531,0,0,0,.741,0l1.483-1.458a.415.415,0,1,0-.582-.592l-1.272,1.25-2.218-2.18a.531.531,0,0,0-.741,0L152.3,180.31a.524.524,0,0,0,0,.749l4.081,4.011a.531.531,0,0,0,.741,0l6.227-6.12a.524.524,0,0,0,0-.749l-1.492-1.466a.531.531,0,0,0-.741,0l-1.68,1.65a.415.415,0,1,0,.582.592l1.468-1.443,1.059,1.041-5.794,5.694-3.648-3.585,1.059-1.041Z" transform="translate(-146.324 -166.731)"/><path class="a" d="M62.117,0H53.833a.908.908,0,0,0-.9.892l-.017,1.234a2.938,2.938,0,0,1-2.907,2.912l-1.24.019a.908.908,0,0,0-.89.9v6.286A17.294,17.294,0,0,0,58.322,28.135l.066.028.033.013.068.023a2.8,2.8,0,0,0,1.773,0l.068-.023.033-.013.066-.028A17.293,17.293,0,0,0,70.875,12.246V5.96a.908.908,0,0,0-.89-.9l-1.239-.019a2.939,2.939,0,0,1-2.908-2.912L65.821.892a.908.908,0,0,0-.9-.892h-.862a.415.415,0,1,0,0,.83h.862A.074.074,0,0,1,64.99.9l.017,1.234a3.765,3.765,0,0,0,3.726,3.73l1.239.019a.074.074,0,0,1,.073.074v6.287A16.463,16.463,0,0,1,60.1,27.373l-.049.021L60,27.411a1.98,1.98,0,0,1-1.248,0l-.051-.017-.049-.021a16.464,16.464,0,0,1-9.946-15.126V5.96a.074.074,0,0,1,.073-.074l1.24-.019a3.765,3.765,0,0,0,3.725-3.73L53.76.9A.074.074,0,0,1,53.833.83h8.284a.415.415,0,0,0,0-.83Z" transform="translate(-47.875)"/><path class="a" d="M78.185,38.981a.415.415,0,0,0-.415.415v1.077A15.627,15.627,0,0,0,87.21,54.83l.033.013a1.142,1.142,0,0,0,.717,0l.033-.013a15.627,15.627,0,0,0,9.44-14.357V35.426a.5.5,0,0,0-.487-.494,4.6,4.6,0,0,1-4.55-4.556.489.489,0,0,0-.487-.481H83.294a.489.489,0,0,0-.487.481,4.6,4.6,0,0,1-4.551,4.556.5.5,0,0,0-.487.494v2.033a.415.415,0,0,0,.83,0V35.748a5.454,5.454,0,0,0,5.022-5.022h7.959A5.454,5.454,0,0,0,96.6,35.748v4.726A14.8,14.8,0,0,1,87.684,54.06a.307.307,0,0,1-.165,0A14.8,14.8,0,0,1,78.6,40.473V39.4A.415.415,0,0,0,78.185,38.981Z" transform="translate(-76.102 -28.227)"/></g></g></svg>