<svg id="Group_2324" data-name="Group 2324" xmlns="http://www.w3.org/2000/svg" xmlns:xlink="http://www.w3.org/1999/xlink" width="36.262" height="50.469" viewBox="0 0 36.262 50.469">
  <defs>
    <clipPath id="clip-path">
      <rect id="Rectangle_91" data-name="Rectangle 91" width="36.262" height="50.469" fill="#fff"/>
    </clipPath>
  </defs>
  <g id="Group_2323" data-name="Group 2323" clip-path="url(#clip-path)">
    <path id="Path_141" data-name="Path 141" d="M34.363,96a.393.393,0,0,1-.706.206l-5.635-5.258a.422.422,0,0,1,.142-.759l7.9-3.16c.368-.147.588.047.49.431Z" transform="translate(-23.643 -73.866)" fill="#fff"/>
    <path id="Path_142" data-name="Path 142" d="M27.635,128.392c-.3.259-.6.151-.675-.239l-1.544-8.545c-.071-.39.109-.488.4-.218l5.363,5a.634.634,0,0,1-.019.962Z" transform="translate(-21.572 -101.264)" fill="#fff"/>
    <path id="Path_143" data-name="Path 143" d="M35.123,45.318a.483.483,0,0,1-.2.814l-7.86,3.142c-.368.147-.556-.037-.418-.408l3.228-8.675a.391.391,0,0,1,.722-.129Z" transform="translate(-22.591 -33.859)" fill="#fff"/>
    <path id="Path_144" data-name="Path 144" d="M9,126.3c.071.39-.048.437-.264.1L5.69,121.7a1.115,1.115,0,0,1,.039-1.182l1.361-1.824c.237-.318.489-.259.559.132Z" transform="translate(-4.704 -100.628)" fill="#fff"/>
    <path id="Path_145" data-name="Path 145" d="M13.317,51.967c-.138.371-.354.367-.479-.008L11.8,48.834a1.2,1.2,0,0,1,.306-1.168L15.815,44.3c.294-.266.421-.18.283.192Z" transform="translate(-9.98 -37.493)" fill="#fff"/>
    <path id="Path_146" data-name="Path 146" d="M6.445,88.719a1.55,1.55,0,0,1-.2,1.262L5.176,91.409c-.237.318-.4.255-.357-.139l.511-4.96c.041-.394.177-.409.3-.033Z" transform="translate(-4.087 -73.04)" fill="#fff"/>
    <path id="Path_147" data-name="Path 147" d="M30.932,29.562c.132.153,0,.5-.294.763l-1.67,1.514c-.294.266-.341.223-.1-.095l1.4-1.882c.236-.318.538-.453.67-.3" transform="translate(-24.384 -25.053)" fill="#fff"/>
    <path id="Path_148" data-name="Path 148" d="M83.788,160.515a.423.423,0,0,1-.772.028l-4.365-6.352a.392.392,0,0,1,.309-.668l8.771-.905c.394-.041.553.206.353.548Z" transform="translate(-66.704 -129.608)" fill="#fff"/>
    <path id="Path_149" data-name="Path 149" d="M51.5,169.4c.224.327.1.49-.274.362L43,166.969a.377.377,0,0,1-.136-.7l3.524-3.035a.634.634,0,0,1,.954.124Z" transform="translate(-36.241 -138.488)" fill="#fff"/>
    <path id="Path_150" data-name="Path 150" d="M86.012,97.263c.259.3.148.58-.247.62l-8.9.919a.469.469,0,0,1-.538-.624l2.228-8.667c.1-.384.391-.452.65-.152Z" transform="translate(-64.803 -75.73)" fill="#fff"/>
    <path id="Path_151" data-name="Path 151" d="M128.368,161.349a.39.39,0,0,1-.235.694l-9.057,1.907c-.388.082-.542-.131-.342-.474l4.272-7.308a.483.483,0,0,1,.834-.076Z" transform="translate(-100.762 -132.39)" fill="#fff"/>
    <path id="Path_152" data-name="Path 152" d="M55.119,201.093a1.115,1.115,0,0,1-1.175-.136l-4.2-3.712c-.3-.262-.233-.373.142-.245l7.2,2.445c.375.128.4.385.047.573Z" transform="translate(-42.083 -167.259)" fill="#fff"/>
    <path id="Path_153" data-name="Path 153" d="M126.607,207.06a1.2,1.2,0,0,1-1.2.13l-2.935-1.492c-.353-.18-.325-.394.063-.475l7.8-1.643c.388-.082.454.057.148.308Z" transform="translate(-103.8 -172.873)" fill="#fff"/>
    <path id="Path_154" data-name="Path 154" d="M95.257,220.342c-.4-.018-.434-.186-.085-.374l1.571-.843a1.553,1.553,0,0,1,1.278-.014l2.294,1.167c.353.18.318.312-.078.293Z" transform="translate(-80.623 -185.972)" fill="#fff"/>
    <path id="Path_155" data-name="Path 155" d="M177.309,202.906c.132.153-.046.431-.4.618l-2.068,1.1c-.35.186-.385.134-.078-.117l1.744-1.427c.307-.251.666-.331.8-.178" transform="translate(-148.245 -172.254)" fill="#fff"/>
    <path id="Path_156" data-name="Path 156" d="M155.239,89.665c-.368.147-.588-.047-.49-.43l2.2-8.54a.393.393,0,0,1,.707-.207l5.635,5.258a.423.423,0,0,1-.143.759Z" transform="translate(-131.403 -68.224)" fill="#fff"/>
    <path id="Path_157" data-name="Path 157" d="M181.4,57.566c.07.39-.109.488-.4.218l-5.363-5a.634.634,0,0,1,.019-.962l3.524-3.035c.3-.259.6-.151.675.239Z" transform="translate(-148.983 -41.309)" fill="#fff"/>
    <path id="Path_158" data-name="Path 158" d="M161.833,136.085a.39.39,0,0,1-.722.129l-4.528-5.257a.483.483,0,0,1,.2-.814L164.644,127c.368-.147.556.036.418.408Z" transform="translate(-132.855 -107.815)" fill="#fff"/>
    <path id="Path_159" data-name="Path 159" d="M215.248,61.982a1.116,1.116,0,0,1-.039,1.183l-1.361,1.824c-.237.318-.489.259-.559-.132l-1.352-7.479c-.07-.39.048-.437.264-.1Z" transform="translate(-179.972 -48.452)" fill="#fff"/>
    <path id="Path_160" data-name="Path 160" d="M203.957,135.1a1.2,1.2,0,0,1-.306,1.168l-3.712,3.365c-.293.266-.421.18-.283-.192l2.781-7.473c.138-.372.354-.368.479.008Z" transform="translate(-169.513 -111.843)" fill="#fff"/>
    <path id="Path_161" data-name="Path 161" d="M225.716,111.644c-.041.394-.176.409-.3.033l-.814-2.442a1.552,1.552,0,0,1,.2-1.262l1.066-1.429c.237-.317.4-.255.357.139Z" transform="translate(-190.697 -90.313)" fill="#fff"/>
    <path id="Path_162" data-name="Path 162" d="M197.505,185.518c-.237.318-.538.453-.67.3s0-.5.294-.763l1.67-1.514c.294-.266.341-.224.1.095Z" transform="translate(-167.122 -155.727)" fill="#fff"/>
    <path id="Path_163" data-name="Path 163" d="M107.668,29.344a.393.393,0,0,1-.309.668l-8.771.905c-.394.041-.553-.206-.353-.548l4.3-7.349a.423.423,0,0,1,.772-.028Z" transform="translate(-83.354 -19.325)" fill="#fff"/>
    <path id="Path_164" data-name="Path 164" d="M143.83,28.355a.634.634,0,0,1-.954-.124l-4.154-6.046c-.225-.326-.1-.489.274-.362l8.222,2.794a.377.377,0,0,1,.136.7Z" transform="translate(-117.715 -18.497)" fill="#fff"/>
    <path id="Path_165" data-name="Path 165" d="M106.524,85.759c-.1.384-.391.452-.65.152l-6.808-7.9c-.259-.3-.148-.579.247-.62l8.9-.919a.47.47,0,0,1,.538.624Z" transform="translate(-84.015 -64.938)" fill="#fff"/>
    <path id="Path_166" data-name="Path 166" d="M61.981,27.855a.484.484,0,0,1-.834.076l-4.528-5.257a.39.39,0,0,1,.235-.694l9.058-1.907c.388-.082.542.132.342.474Z" transform="translate(-47.964 -17.033)" fill="#fff"/>
    <path id="Path_167" data-name="Path 167" d="M139.421,6.127c-.375-.127-.4-.385-.047-.572l2.006-1.076a1.116,1.116,0,0,1,1.175.136l4.2,3.713c.3.262.233.373-.142.245Z" transform="translate(-118.153 -3.711)" fill="#fff"/>
    <path id="Path_168" data-name="Path 168" d="M62.595,4.91c-.388.082-.454-.057-.148-.308l3.878-3.173a1.2,1.2,0,0,1,1.2-.13l2.935,1.493c.353.18.325.394-.063.475Z" transform="translate(-52.87 -1.015)" fill="#fff"/>
    <path id="Path_169" data-name="Path 169" d="M112.123,1.448a1.551,1.551,0,0,1-1.278.014L108.551.3c-.353-.18-.319-.312.077-.294l4.981.23c.4.018.434.187.085.374Z" transform="translate(-91.981 0)" fill="#fff"/>
    <path id="Path_170" data-name="Path 170" d="M48.3,15.692c-.307.251-.666.331-.8.178s.046-.432.4-.618l2.069-1.1c.35-.187.385-.134.078.117Z" transform="translate(-40.307 -11.92)" fill="#fff"/>
    <path id="Path_171" data-name="Path 171" d="M35.069,191.33c.153-.132.5,0,.763.294l1.514,1.67c.266.294.224.341-.095.1L35.369,192c-.318-.236-.453-.538-.3-.67" transform="translate(-29.729 -162.446)" fill="#fff"/>
    <path id="Path_172" data-name="Path 172" d="M208.413,42c.153-.132.431.046.618.4l1.1,2.069c.187.35.134.385-.117.078L208.591,42.8c-.251-.307-.331-.666-.178-.8" transform="translate(-176.931 -35.63)" fill="#fff"/>
    <path id="Path_173" data-name="Path 173" d="M191.024,24.757c.318.236.453.538.3.67s-.5,0-.763-.294l-1.514-1.67c-.266-.294-.224-.341.094-.1Z" transform="translate(-160.402 -19.709)" fill="#fff"/>
    <path id="Path_174" data-name="Path 174" d="M21.2,171c.251.307.331.666.178.8s-.431-.046-.618-.4l-1.1-2.069c-.186-.35-.134-.385.117-.078Z" transform="translate(-16.596 -143.567)" fill="#fff"/>
    <path id="Path_175" data-name="Path 175" d="M6.277,281.387a4.128,4.128,0,0,1,1.516,1.47,3.862,3.862,0,0,1,.561,2.037,3.922,3.922,0,0,1-.561,2.048,4.176,4.176,0,0,1-3.616,2.037,4.176,4.176,0,0,1-3.616-2.037A3.919,3.919,0,0,1,0,284.895a3.859,3.859,0,0,1,.561-2.037,4.124,4.124,0,0,1,1.516-1.47,4.174,4.174,0,0,1,2.1-.543,4.175,4.175,0,0,1,2.1.543M2.5,282a3.367,3.367,0,0,0-1.236,1.213A3.222,3.222,0,0,0,.8,284.895a3.281,3.281,0,0,0,.458,1.694,3.381,3.381,0,0,0,1.236,1.23,3.311,3.311,0,0,0,1.694.452,3.26,3.26,0,0,0,1.676-.452,3.4,3.4,0,0,0,1.23-1.23,3.281,3.281,0,0,0,.458-1.694,3.241,3.241,0,0,0-.683-2.015,3.353,3.353,0,0,0-.795-.749,3.307,3.307,0,0,0-1.886-.577A3.345,3.345,0,0,0,2.5,282" transform="translate(-0.001 -238.51)" fill="#fff"/>
    <path id="Path_176" data-name="Path 176" d="M82.441,289.131l-1.617-2.442q-.366.023-.561.023h-2.2v2.213a.373.373,0,0,1-.373.373H77.65a.373.373,0,0,1-.373-.373V281.3h2.987a3.486,3.486,0,0,1,2.317.692,2.429,2.429,0,0,1,.818,1.962,2.754,2.754,0,0,1-.481,1.659,2.507,2.507,0,0,1-1.373.927l1.513,2.171a.373.373,0,1,1-.617.419M80.264,286a2.661,2.661,0,0,0,1.762-.521,1.858,1.858,0,0,0,.618-1.5,1.779,1.779,0,0,0-.618-1.465,2.724,2.724,0,0,0-1.762-.5h-2.2V286Z" transform="translate(-65.628 -238.898)" fill="#fff"/>
    <path id="Path_177" data-name="Path 177" d="M147.72,281.756a1.763,1.763,0,0,1,.681,1.47,1.812,1.812,0,0,1-.395,1.19,1.87,1.87,0,0,1-1.1.629,2.168,2.168,0,0,1,1.373.652,1.942,1.942,0,0,1,.492,1.362,1.884,1.884,0,0,1-.767,1.6,3.491,3.491,0,0,1-2.128.572h-3.387v-8.01h3.353a2.984,2.984,0,0,1,1.882.532m-.6,2.632a1.272,1.272,0,0,0,.469-1.058,1.232,1.232,0,0,0-.469-1.03,2.047,2.047,0,0,0-1.316-.355h-2.529v2.815H145.8a2.07,2.07,0,0,0,1.316-.372m.28,3.73a1.32,1.32,0,0,0,.566-1.139,1.292,1.292,0,0,0-.572-1.121,2.741,2.741,0,0,0-1.591-.4h-2.529v3.067H145.8a2.7,2.7,0,0,0,1.6-.406" transform="translate(-121.007 -238.833)" fill="#fff"/>
    <path id="Path_178" data-name="Path 178" d="M206.4,281.678a4.03,4.03,0,0,0-1.1-.166,2.38,2.38,0,0,0-1.322.326,1.011,1.011,0,0,0-.5.887,1.161,1.161,0,0,0,.275.8,1.941,1.941,0,0,0,.675.486,10.545,10.545,0,0,0,1.1.395,9.447,9.447,0,0,1,1.31.475,2.32,2.32,0,0,1,.847.681,2.059,2.059,0,0,1-.011,2.311,2.305,2.305,0,0,1-1.013.761,3.9,3.9,0,0,1-1.5.269,4.192,4.192,0,0,1-1.631-.332,4.489,4.489,0,0,1-1.137-.676.367.367,0,0,1,.459-.574,3.982,3.982,0,0,0,.925.541,3.589,3.589,0,0,0,1.4.3,2.514,2.514,0,0,0,1.453-.372,1.158,1.158,0,0,0,.538-1,1.221,1.221,0,0,0-.275-.824,1.819,1.819,0,0,0-.675-.492q-.4-.172-1.121-.4a11.461,11.461,0,0,1-1.3-.475,2.2,2.2,0,0,1-.835-.664,1.817,1.817,0,0,1-.343-1.15,1.725,1.725,0,0,1,.343-1.064,2.17,2.17,0,0,1,.961-.7,3.848,3.848,0,0,1,1.43-.246,4.61,4.61,0,0,1,1.31.194,4.888,4.888,0,0,1,.838.33.369.369,0,0,1,.164.5l-.011.022a.369.369,0,0,1-.5.158,4.235,4.235,0,0,0-.75-.291" transform="translate(-171.779 -238.446)" fill="#fff"/>
  </g>
</svg>
