<svg xmlns="http://www.w3.org/2000/svg" width="75.443" height="58.308" viewBox="0 0 75.443 58.308"><defs><style>.a{fill:#4a555f;}.b{fill:#469daf;}.c{fill:#e0e0e0;}.d{fill:#71cde1;}.e{fill:#03fcf5;}.f{fill:#ffd552;}.g{fill:#fff;}</style></defs><g transform="translate(0 -36.85)"><g transform="translate(2.743 36.85)"><rect class="a" width="0.86" height="1.395" transform="translate(69.654 11.973)"/><rect class="a" width="0.86" height="1.395" transform="translate(69.654 15.809)"/><rect class="a" width="1.395" height="0.86" transform="translate(71.305 14.159)"/><rect class="a" width="1.395" height="0.86" transform="translate(67.469 14.159)"/><rect class="a" width="0.86" height="1.395" transform="translate(13.577)"/><rect class="a" width="0.86" height="1.395" transform="translate(13.577 3.813)"/><rect class="a" width="1.395" height="0.86" transform="translate(15.228 2.185)"/><rect class="a" width="1.395" height="0.86" transform="translate(11.392 2.185)"/><rect class="a" width="0.86" height="1.395" transform="translate(2.162 41.755)"/><rect class="a" width="0.86" height="1.395" transform="translate(2.162 45.568)"/><rect class="a" width="1.395" height="0.86" transform="translate(3.813 43.917)"/><rect class="a" width="1.395" height="0.86" transform="translate(0 43.917)"/></g><circle class="b" cx="1.372" cy="1.372" r="1.372" transform="translate(19.715 52.659)"/><circle class="c" cx="0.814" cy="0.814" r="0.814" transform="translate(69.538 68.19)"/><circle class="b" cx="2.023" cy="2.023" r="2.023" transform="translate(66.98 80.395)"/><g transform="translate(0 39.459)"><circle class="d" cx="2.743" cy="2.743" r="2.743" transform="translate(0 9.225)"/><path class="e" d="M132.6,48.183,121.786,50.81a14.051,14.051,0,0,0-8.044,5.394h0a15.461,15.461,0,0,0-.837,1.3L98.63,82.614a3.483,3.483,0,0,0,.976,4.51l5.44,3.952,5.44,3.952a3.462,3.462,0,0,0,4.58-.465L134.48,73.2a12.321,12.321,0,0,0,.976-1.209h0a14.077,14.077,0,0,0,2.627-9.346l-.86-11.09A3.744,3.744,0,0,0,132.6,48.183Z" transform="translate(-75.358 -48.071)"/></g><path class="a" d="M102.238,89.22l-4.324-3.139a3.889,3.889,0,0,1-1.093-5.068L111.1,55.9c.256-.465.558-.907.86-1.348a14.313,14.313,0,0,1,8.3-5.557l10.811-2.627a4.146,4.146,0,0,1,5.115,3.72l.86,11.09a14.554,14.554,0,0,1-2.72,9.625c-.3.418-.651.837-1,1.232L117.769,89.15l-.628-.581,15.554-17.111c.325-.372.651-.767.953-1.162a13.572,13.572,0,0,0,2.557-9.044l-.86-11.09A3.3,3.3,0,0,0,134,47.743a3.258,3.258,0,0,0-2.72-.535l-10.811,2.627a13.736,13.736,0,0,0-7.812,5.231,14.451,14.451,0,0,0-.814,1.255L97.565,81.431a3.022,3.022,0,0,0,.86,3.952l4.348,3.139Z" transform="translate(-73.921 -7.22)"/><path class="f" d="M70.565,150.913a12.9,12.9,0,0,0-8.253-1.953c-.488.046-1,.116-1.511.209a15.168,15.168,0,0,1,10.369-5.533,17.8,17.8,0,0,1,3.511.047Z" transform="translate(-46.665 -81.91)"/><g transform="translate(14.135 61.662)"><path class="b" d="M70.565,150.913a12.9,12.9,0,0,0-8.253-1.953c-.488.046-1,.116-1.511.209a15.168,15.168,0,0,1,10.369-5.533,17.8,17.8,0,0,1,3.511.047Z" transform="translate(-60.8 -143.571)"/></g><path class="b" d="M195.4,225.906a12.866,12.866,0,0,0-4.7-8.7l5.6-6.161a15.028,15.028,0,0,1,.372,12.368A19.019,19.019,0,0,1,195.4,225.906Z" transform="translate(-146.364 -133.7)"/><path class="e" d="M98.542,228.838c-4.324,5.44-10.16,7.974-13.345,5.65-3.185-2.3-2.6-8.625,1.232-14.438a3.807,3.807,0,0,0,.581.488l1.744,1.279,7.37,5.347,1.744,1.279A6.41,6.41,0,0,0,98.542,228.838Z" transform="translate(-63.808 -140.608)"/><path class="a" d="M86.619,246.588a5.155,5.155,0,0,1-3.115-.953c-2.674-1.93-2.976-6.44-.79-11.485l.79.349c-1.976,4.58-1.767,8.788.511,10.462,2.953,2.139,8.556-.3,12.764-5.58l.674.535C94.059,244.147,89.921,246.588,86.619,246.588Z" transform="translate(-62.371 -151.43)"/><path class="b" d="M110.381,233c-2.557,2.627-5.6,3.7-7.37,2.418s-1.7-4.51,0-7.765Z" transform="translate(-78.065 -146.441)"/><circle class="g" cx="6.045" cy="6.045" r="6.045" transform="translate(42.615 50.218)"/><g transform="translate(4.929 44.22)"><path class="a" d="M193.842,109.6a4.667,4.667,0,0,1-3.79-7.416,4.713,4.713,0,0,1,3.79-1.93,4.667,4.667,0,0,1,3.79,7.416A4.713,4.713,0,0,1,193.842,109.6Zm0-8.509a3.833,3.833,0,0,0-3.115,1.581,3.793,3.793,0,0,0-.674,2.86,3.814,3.814,0,0,0,3.79,3.208,3.833,3.833,0,0,0,3.115-1.581,3.793,3.793,0,0,0,.674-2.86,3.737,3.737,0,0,0-1.534-2.488A3.94,3.94,0,0,0,193.842,101.087Z" transform="translate(-150.111 -92.88)"/><path class="a" d="M52.33,108.771v-.86c.279,0,.558,0,.837-.023l.023.86C52.912,108.771,52.633,108.771,52.33,108.771Zm-.86,0c-.279,0-.581,0-.86-.023l.023-.86c.279,0,.558.023.837.023Zm2.581-.047-.046-.86c.279-.023.558-.023.837-.047l.046.86C54.632,108.7,54.33,108.724,54.051,108.724Zm-4.3,0c-.279-.023-.581-.023-.86-.046l.046-.86c.279.023.558.047.837.047Zm6.021-.116-.07-.837c.279-.023.558-.046.837-.093l.093.837C56.352,108.562,56.05,108.585,55.771,108.608Zm-7.719,0c-.279-.023-.581-.046-.86-.093l.093-.837c.279.023.558.047.837.093Zm-1.72-.186c-.279-.046-.558-.07-.86-.116l.116-.837c.279.046.558.07.837.116Zm11.136,0-.116-.837c.279-.047.558-.07.837-.116l.116.837A8.085,8.085,0,0,1,57.468,108.422Zm-12.833-.232-.837-.139.163-.837.837.139Zm14.554-.023-.139-.837c.279-.047.558-.093.837-.163l.163.837C59.747,108.073,59.468,108.12,59.189,108.166Zm-16.251-.3c-.279-.07-.558-.116-.837-.186l.186-.837c.279.07.558.116.814.186Zm17.925-.023L60.677,107c.279-.07.558-.116.814-.186l.209.837C61.421,107.725,61.142,107.794,60.863,107.841Zm-19.6-.372-.837-.209.232-.814c.279.07.535.139.814.209Zm21.273-.023-.209-.814c.279-.07.535-.14.814-.232l.232.814C63.095,107.283,62.816,107.376,62.537,107.446ZM39.613,107c-.279-.093-.558-.163-.814-.256l.256-.814c.256.093.535.163.814.256Zm24.574-.047-.256-.814c.279-.093.535-.163.79-.256L65,106.7C64.745,106.795,64.466,106.864,64.187,106.957Zm-26.225-.465c-.279-.093-.535-.186-.814-.3l.3-.79c.256.093.535.186.79.279Zm27.876-.093-.3-.79c.256-.093.535-.209.79-.3l.325.79C66.373,106.19,66.094,106.306,65.838,106.4Zm-29.48-.511c-.279-.116-.535-.209-.79-.325l.325-.79c.256.116.511.209.767.325Zm31.061-.116-.325-.79.767-.349.349.767A8.228,8.228,0,0,1,67.419,105.772Zm-32.642-.581c-.256-.116-.511-.256-.767-.372l.372-.767c.256.116.511.232.767.372ZM69,105.028l-.372-.744a7.528,7.528,0,0,0,.744-.4l.4.744C69.511,104.772,69.256,104.911,69,105.028Zm-35.78-.581-.767-.418.418-.744a7.529,7.529,0,0,0,.744.4Zm37.291-.209-.418-.744c.256-.139.488-.279.721-.418l.442.721C71.023,103.935,70.767,104.074,70.511,104.237Zm-38.779-.651c-.256-.139-.488-.3-.744-.442l.465-.721c.232.139.465.3.721.442ZM72,103.331l-.465-.721c.232-.163.465-.3.7-.465l.488.7C72.487,103.005,72.232,103.168,72,103.331Zm-41.732-.651c-.232-.163-.488-.325-.7-.488l.488-.7.7.488Zm43.15-.349-.511-.674c.232-.163.442-.349.651-.511l.535.651C73.859,101.959,73.65,102.145,73.417,102.331Zm-44.568-.674c-.232-.186-.465-.349-.674-.535l.535-.651c.209.186.442.349.651.511Zm45.894-.442-.558-.628c.209-.186.418-.372.6-.558l.581.6A5.024,5.024,0,0,1,74.742,101.215Zm-47.219-.651c-.209-.186-.442-.4-.628-.581l.581-.628c.209.186.4.372.628.558ZM76,100.029l-.6-.581c.186-.209.372-.4.558-.6l.628.558C76.393,99.611,76.207,99.82,76,100.029Zm-49.73-.674c-.209-.209-.4-.418-.6-.628l.628-.581a7.136,7.136,0,0,0,.581.6Zm50.892-.628-.674-.535c.163-.209.349-.442.511-.651l.7.511A7.56,7.56,0,0,0,77.16,98.727Zm-52.055-.651c-.186-.232-.372-.442-.535-.674l.674-.511c.163.209.349.442.511.651Zm53.077-.767-.721-.465c.139-.232.3-.465.442-.7l.744.418C78.486,96.821,78.323,97.053,78.183,97.309ZM24.06,96.681c-.163-.232-.325-.488-.488-.721l.721-.442c.139.232.3.465.465.7ZM79.044,95.8l-.767-.4c.116-.256.232-.488.349-.744l.79.349C79.3,95.263,79.183,95.542,79.044,95.8ZM23.13,95.217c-.139-.256-.279-.511-.4-.767l.767-.372c.116.256.256.488.4.744Zm56.611-1.023-.79-.3a7.865,7.865,0,0,0,.256-.79l.814.256A5.89,5.89,0,0,1,79.741,94.194Zm-57.379-.558c-.116-.279-.232-.535-.325-.814l.79-.279c.093.256.186.511.3.767Zm57.89-1.116-.837-.186c.07-.279.116-.535.163-.814l.837.139A5.6,5.6,0,0,1,80.252,92.52Zm-58.494-.511c-.093-.279-.163-.558-.232-.837l.837-.186c.07.256.139.535.209.79Zm58.8-1.232-.837-.093c.023-.279.046-.558.07-.814l.86.046C80.6,90.195,80.578,90.5,80.555,90.776Zm-59.169-.488c-.046-.279-.093-.581-.116-.86l.837-.093c.023.279.07.535.116.814ZM21.2,88.544v-.86l.86.023v.837Zm.883-1.674-.837-.07c.023-.3.07-.581.093-.883l.837.139C22.153,86.312,22.107,86.591,22.083,86.87Zm.256-1.627-.837-.186c.07-.279.139-.558.209-.86l.814.232C22.455,84.708,22.386,84.964,22.339,85.243Zm.442-1.581-.814-.279a8.477,8.477,0,0,1,.325-.814l.79.325C22.967,83.15,22.874,83.406,22.781,83.662Zm.628-1.534-.767-.372c.116-.256.256-.511.4-.767l.744.418C23.664,81.639,23.548,81.895,23.409,82.127Zm.814-1.441-.721-.465c.163-.232.325-.488.488-.721l.7.488C24.525,80.221,24.362,80.453,24.222,80.686Zm.953-1.348L24.5,78.8c.186-.232.372-.442.558-.674l.651.558C25.524,78.9,25.338,79.128,25.176,79.338Zm1.093-1.255-.628-.581c.186-.209.4-.418.6-.628l.6.6A7.138,7.138,0,0,0,26.268,78.082ZM27.454,76.9l-.581-.628c.209-.186.442-.372.651-.558l.558.651C27.872,76.548,27.663,76.71,27.454,76.9Zm1.279-1.069-.511-.674c.232-.186.465-.349.7-.511l.488.7C29.174,75.5,28.942,75.664,28.733,75.827Zm1.348-.976-.465-.7c.232-.163.488-.325.721-.465l.442.721C30.546,74.548,30.314,74.711,30.081,74.85Zm1.441-.883-.418-.744c.256-.139.488-.279.744-.418l.4.744C31.988,73.688,31.755,73.828,31.523,73.967Zm1.465-.79-.4-.767c.256-.139.511-.256.767-.372l.372.767C33.475,72.921,33.243,73.037,32.987,73.177Zm1.511-.721-.349-.79c.256-.116.535-.232.79-.325l.325.79C35.01,72.223,34.754,72.34,34.5,72.456Zm1.558-.651-.3-.79c.256-.093.535-.209.814-.3l.279.814C36.591,71.619,36.312,71.712,36.056,71.8Zm1.581-.535-.256-.814c.279-.093.535-.163.814-.256l.232.814C38.172,71.084,37.916,71.177,37.637,71.27Zm1.627-.488-.232-.814.837-.209.209.837A8.342,8.342,0,0,0,39.264,70.782Zm1.627-.4-.186-.837c.279-.07.558-.116.837-.186l.163.837C41.45,70.247,41.171,70.317,40.892,70.387Zm1.651-.349L42.4,69.2c.279-.046.558-.093.86-.139l.139.837C43.1,69.945,42.822,69.991,42.543,70.038Zm1.674-.256-.116-.837c.279-.046.558-.07.86-.116l.093.837C44.774,69.712,44.5,69.736,44.217,69.782ZM45.89,69.6l-.07-.837.86-.07.07.86C46.448,69.55,46.169,69.573,45.89,69.6Zm1.674-.139-.047-.86c.279-.023.581-.023.86-.046l.023.86C48.122,69.433,47.843,69.457,47.564,69.457Zm3.6-.023h-.232l.023-.86h.256Zm-1.906-.023-.023-.86h.837v.86h-.814Z" transform="translate(-21.2 -68.55)"/></g></g></svg>