<svg xmlns="http://www.w3.org/2000/svg" width="31.695" height="31.695" viewBox="0 0 31.695 31.695"><defs><style>.a{fill:#03fcf5;}</style></defs><g transform="translate(7.429 7.429)"><path class="a" d="M128.419,120a8.353,8.353,0,0,0-3.484.753.619.619,0,0,0,.513,1.127,7.177,7.177,0,1,1-3.419,3.259.619.619,0,1,0-1.1-.566A8.42,8.42,0,1,0,128.419,120Z" transform="translate(-120 -120)"/></g><g transform="translate(0 5.324)"><path class="a" d="M31.268,95.7c-.179-.247-.483-.65-.911-1.169a32.208,32.208,0,0,0-3.329-3.467A23.359,23.359,0,0,0,22.054,87.6,13.782,13.782,0,0,0,15.848,86c-4.56,0-8.6,2.741-11.179,5.039A31.551,31.551,0,0,0,1.338,94.5c-.435.53-.737.934-.913,1.18-.375.524-.425.643-.425.839s.056.313.428.825c.179.247.483.65.911,1.169a32.21,32.21,0,0,0,3.329,3.467,23.359,23.359,0,0,0,4.974,3.467,13.782,13.782,0,0,0,6.206,1.6c3.157,0,6.419-1.281,9.695-3.807a.619.619,0,0,0-.756-.98c-3.054,2.355-6.062,3.549-8.939,3.549-4.073,0-7.762-2.479-10.14-4.559a29.7,29.7,0,0,1-4.354-4.734,28.607,28.607,0,0,1,4.372-4.758c2.37-2.062,6.05-4.52,10.122-4.52s7.762,2.479,10.14,4.559a29.7,29.7,0,0,1,4.355,4.735,26.406,26.406,0,0,1-2.389,2.857.619.619,0,1,0,.9.854,30.136,30.136,0,0,0,2.011-2.332c.833-1.08.833-1.215.833-1.387C31.7,96.319,31.639,96.211,31.268,95.7Z" transform="translate(0 -86)"/></g><g transform="translate(10.771 10.771)"><path class="a" d="M183.663,176.9a.619.619,0,0,0-1.158.11,1.114,1.114,0,1,1-1.358-1.36.619.619,0,0,0,.112-1.158,5.075,5.075,0,1,0,2.4,2.408Zm-4.587,6.013a3.838,3.838,0,0,1,0-7.676,3.9,3.9,0,0,1,.5.033,2.353,2.353,0,0,0,3.3,3.307,3.886,3.886,0,0,1,.032.5A3.842,3.842,0,0,1,179.076,182.914Z" transform="translate(-174 -174)"/></g><g transform="translate(15.229)"><path class="a" d="M246.619,0A.619.619,0,0,0,246,.619V3.962a.619.619,0,1,0,1.238,0V.619A.619.619,0,0,0,246.619,0Z" transform="translate(-246)"/></g><g transform="translate(22.464 1.641)"><path class="a" d="M366.874,26.683a.619.619,0,0,0-.875,0l-2.933,2.933a.619.619,0,1,0,.875.876l2.933-2.933A.619.619,0,0,0,366.874,26.683Z" transform="translate(-362.884 -26.502)"/></g><g transform="translate(5.06 1.641)"><path class="a" d="M85.723,29.617,82.79,26.684a.619.619,0,0,0-.875.876l2.933,2.933a.619.619,0,1,0,.875-.876Z" transform="translate(-81.733 -26.502)"/></g><g transform="translate(15.229 27.114)"><path class="a" d="M246.619,438a.619.619,0,0,0-.619.619v3.343a.619.619,0,1,0,1.238,0v-3.343A.619.619,0,0,0,246.619,438Z" transform="translate(-246 -438)"/></g><g transform="translate(5.06 25.883)"><path class="a" d="M85.723,418.3a.619.619,0,0,0-.875,0l-2.933,2.933a.619.619,0,1,0,.875.875l2.933-2.933A.619.619,0,0,0,85.723,418.3Z" transform="translate(-81.733 -418.115)"/></g><g transform="translate(22.464 25.883)"><path class="a" d="M366.875,421.23l-2.933-2.933a.619.619,0,0,0-.875.875L366,422.105a.619.619,0,1,0,.875-.875Z" transform="translate(-362.885 -418.115)"/></g><g transform="translate(9.861 9.569)"><path class="a" d="M160.347,154.761a.619.619,0,1,0,.181.438A.623.623,0,0,0,160.347,154.761Z" transform="translate(-159.29 -154.58)"/></g><g transform="translate(26.233 20.038)"><path class="a" d="M424.817,323.87a.62.62,0,1,0,.181.438A.623.623,0,0,0,424.817,323.87Z" transform="translate(-423.76 -323.689)"/></g></svg>