<svg xmlns="http://www.w3.org/2000/svg" width="25" height="20" viewBox="0 0 25 20"><defs><style>.a{fill:#fff;}</style></defs><g transform="translate(-63 -128.55)"><g transform="translate(63 129)"><g transform="translate(0 0)"><path class="a" d="M16.137,9.818c-.585.194-5.749,1.937-6.883,3.221a3.3,3.3,0,0,0-.829,2.475,3.34,3.34,0,0,0,1.227,2.315,3.608,3.608,0,0,0,4.961-.383c1.133-1.287,2.093-6.485,2.2-7.074a.487.487,0,0,0-.173-.463A.525.525,0,0,0,16.137,9.818ZM13.829,16.8a2.625,2.625,0,0,1-3.511.271,2.348,2.348,0,0,1-.282-3.389c.636-.721,3.442-1.877,5.6-2.64C15.206,13.178,14.458,16.088,13.829,16.8ZM12.347,2.067A12.235,12.235,0,0,0,0,14.158a12.359,12.359,0,0,0,2.428,7.249.519.519,0,0,0,.42.21h19a.517.517,0,0,0,.42-.21A12.441,12.441,0,0,0,24.7,14.1,12.209,12.209,0,0,0,12.347,2.067Zm9.231,18.556H3.117a11.367,11.367,0,0,1-2.088-6.466,11.223,11.223,0,0,1,11.318-11.1A11.2,11.2,0,0,1,23.665,14.1,11.456,11.456,0,0,1,21.578,20.623Zm-9.231-15.7a8.573,8.573,0,0,0-8.671,8.453.515.515,0,0,0,1.029,0,7.561,7.561,0,0,1,7.642-7.46,7.549,7.549,0,0,1,7.642,7.433.515.515,0,0,0,1.029,0A8.561,8.561,0,0,0,12.347,4.925Z" transform="translate(0 -2.067)"/></g></g><path class="a" d="M2.883,20a.525.525,0,0,1-.425-.215A12.732,12.732,0,0,1,0,12.369,12.448,12.448,0,0,1,12.5,0,12.421,12.421,0,0,1,25,12.311a12.812,12.812,0,0,1-2.459,7.474.522.522,0,0,1-.425.215ZM1.042,12.369a11.71,11.71,0,0,0,2.114,6.614H21.844a11.808,11.808,0,0,0,2.113-6.671,11.459,11.459,0,0,0-22.916.058Zm8.73,3.755a3.416,3.416,0,0,1-.4-4.9c1.148-1.315,6.376-3.1,6.967-3.3a.525.525,0,0,1,.507.094.5.5,0,0,1,.175.473c-.107.6-1.077,5.921-2.225,7.237a3.625,3.625,0,0,1-5.022.392Zm.389-4.241a2.419,2.419,0,0,0,.285,3.467A2.638,2.638,0,0,0,14,15.073c.637-.729,1.394-3.706,1.83-5.89C13.645,9.963,10.8,11.146,10.16,11.883Zm-6.439-.312a8.779,8.779,0,0,1,17.556-.028.521.521,0,0,1-1.042,0,7.737,7.737,0,0,0-15.472.028.521.521,0,0,1-1.042,0Z" transform="translate(63 128.55)"/></g></svg>